<?xml version="1.0" encoding="UTF-8"?>
<svg version="1.1" viewBox="0 0 2048 1240" width="1280" height="1280" xmlns="http://www.w3.org/2000/svg">
<path transform="translate(449)" d="m0 0h35l14 10 12 11 7 8 10 16 11 23 7 20 10 27 11 24 11 22 11 23 16 34 19 39 9 20 15 33 13 30 10 24 11 27 13 34 11 30 18 54v4l11-6 13-9 16-8 13-6 13-4 17-3 26-1 9-2 10-4 12-3 8-1 25-1 2-5 4-22 6-27 10-46 8-35 4-20v-3h-31l-12-2-7-4-8-10-5-13-2-11v-13l3-19 6-17 6-9 4-5 14-9 8-2 36-1 11-1 10-6 4-2 8-1 27-1h84l21 2 15 4 16 8 10 8 11 11 10 16 6 15 5 18 3 20 2 30v23l-2 24-5 35-5 29-1 10v13l1 21-1 4 7-3 4-15 7-27 7-17 9-10 6-3h8l6 3 6 7 5 13 3 14 4 26 2 4 7 1 74 1 11 1 6 3 7 8 7 15v14l2 4 5-9 5-5 9-8 21-10 8-2h15l9 2 6 4v2l11-9 20-9 4-1h22l9 3 12 9 8 9 3 6 3 3 4-1 10-15 11-11 9-4 9 1 8 5 7 10 3 2 5-1 10-4h21l4-18 11-49 4-15 6-16 7-13 12-12 5-3 9-1 8 3 9 9 5 11 4 14v8l-1 10 3-11 3-15 7-17 7-11 8-8 8-4h8l8 3 7 6 8 16 2 7 1 15-2 18-14 56v4l14 1 9 3 11 13h6l12-5 8 1 5 4 5 12 2 3 4-1 7-10 8-11 9-8 6-2 9 1 8 7 9 13 4 9 2 10v9l-7 34-15 63-24 96 3-8 24-97 10-42 11-44 9-22 4-6 8-7 10-4 9 1 8 7 5 6 5 9 5-12 4-8 12-12 4-2h11l8 4 7 8 6 12 3 14-1 20-5 29-10 45-15 65-9 41-6 24h34l13 2 6 3 5 6 6 17 1 5v23l-3 21-5 13-7 10-8 7-8 3-29 4-17 2-3 1-3 4-6 1-40 2h-28l-6-2-2-4-6-2-14-1h-12l-6 8-11 1-55-1-5-3-9-8-6-5-6-2h-2l-2 6-5 2-54 1-5 1-5 8h-78l-10-5-3-2-5-1-32-1h-24l-3 9-2 1h-33l-29-1-10-7h-9l-4-1h-16l-5 3-3 4-6 1h-45l-8-1-5-6-6-1-20-1h-41l-5 2-6 7-4 1h-82l-12-13-5-5-7-10-6-12-6-18-5-23-2-15-1-22 1-17 6-38 6-27 1-14-1-3-1-12v-11l7-15 1-4-4 2-7 16-9 36-8 22-6 8-4 3-3 1h-13l-5-3-6-7-6-12-3-12v-20l6-37 16-72 5-15-16 5-21 3-29 3-14 3-3 2-4 18-12 52-14 65-13 57-12 54-23 93-10 37-11 35-9 24-12 25-8 15-14 21-8 10-9 10-9 9-13 9-17 8-16 5-14 2-31 2-10 4-8 3-16 2-20 1-13-3-15-6-10-6-11-9-9-10-11-16-3-4-13 25-10 18-13 25-7 10-2 1-13 2-22 12-8 4-30 8-50 11-34 8-13 4-6-4-1-2-6 2-16 8-19 9-21 9-14 7-9-1-10-6-12-10-10-14-8-15-6-18-2-13-1-13v-18l2-20 4-19 7-20 9-20 15-29 13-20 6-8 8-11 12-14 12-12 11-9 12-9 16-10 15-8 21-7 30-7 14-2 24-1 2-3-1-7-4-3h-19l-18 2-15 4-23 11-8 5-7-1-14-11-10-9-2-1v-2l-4-2-7-7-8-7-15-15-7-8-53-53 2 4 7 11 7 7 7 8 11 11 8 7 10 9 12 11 3 6-3 17-6 24-10 23-8 11-9 11-9 8-12 6-11 2h-11l-16-4-16-6-2-1 9 10 5 8 3 9v13l-4 13-9 15-11 12-9 8-8 4-12 3-18 1-21-3-18-6-17-9-16-12-13-11-7-7-9-11-10-12-13-19-10-15-12-24-11-28-11-34-12-49-11-55-9-54-2-10v-105l7-19 8-16 8-11 7-6 10-5 8-2h9l22 4v-22l1-58 1-30 2-23 3-19 6-22 6-14 8-13 9-10 10-9 12-7 15-5 18-3h32l1-2 2-22 4-23 9-32 7-17 7-14 10-15 12-12 15-9 10-3h20l16 5 16 8 13 10 10 9 6 7 7 11 2 4 7-38 7-26 6-15 12-25 11-17 11-12 8-8 16-11zm13 17-11 4-9 6-12 12-7 10-12 21-9 21-6 18-7 37-3 25-1 14-1 36-3 11 4-4 11-14 10-11 11-9 11-7 8-4 17-5h22l15 4 16 9 14 11 15 15 10 14 5 10 2 5 1-3-4-18-5-46-5-35-5-29-6-22-9-24-8-16-7-11-9-10-9-8-12-6-4-1zm-175 99-11 2-9 5-9 8-9 14-10 21-10 30-5 24-7 43-3 4-12-1h-33l-16 3-11 4-10 7-7 6-9 13-8 20-6 24-3 23-3 63v66l1 14-11-2-13-6-15-4h-9l-9 3-5 4-8 13-5 14-4 24-2 22v40l4 34 15 90 11 52 11 38 11 30 13 28 7 8 4-1 12-15 14-16 3-2h9l5 5 6 10v7l-6 11-8 14-9 11-4 5 1 5 10 13 13 12 15 11 15 9 18 7 12 3h17l10-3 11-6 10-10 5-9 3-10v-12l-3-6-5-6-17-13-17-12-10-8-12-11-7-7-9-11-12-13-8-10-7-12-4-17-4-23-16-71-13-57-7-36-3-22v-15l2-5 6-2 7 2 5 6 6 14 7 23 10 41 9 40 9 38 10 36 3 12 2 4 5-2 15-15 4-5 10-7h7l11 6h14l9 3 6 10 1 5-3 9-6 11-16 24-8 9-2 4v7l4 6 14 13 18 13 16 9 12 5 4 1h10l9-3 11-8 7-8 11-20 7-23 3-11v-8l-7-8-13-11-13-12-7-8-11-13-11-15-8-16-5-13-6-27-12-64-13-56-12-46-14-51-9-43-9-51-2-15-1-21 2-16 4-6 5-1 6 3 7 16 8 24 7 27 12 54 11 52 11 53 5 26 7 33 9 43 5 21 3 4 4-1 7-8 6-7 7-5 3-1h21l7-4 6-6 6 1 6 4 5 6 1 3v12l-7 14-7 9-7 12-11 15-6 7-7 5h-4l-13-18-4-5-5-1 5 9 12 13 7 8 21 21 8 7 34 34 8 7 12 12 10 8 4 3 7-1 11-6 16-6 17-3 22-2 6-2 4-15 5-22 12-36 4-10-1-7-6-15-7-12-12-17-14-17-15-16-14-14-8-7-13-11-13-13-6-10-6-15-7-24-5-25-5-43-4-11-11-20-10-23-7-20-6-20-5-27-3-27-3-34v-54l5-62 1-19-3-9-7-10-4-5h-2v-2h-2l-1-3-11-9-14-9-13-6zm170 78-12 3-14 7-11 8-10 9-9 13-4 7 1 2 12-16 11-8 8-5 10-4 14-2h17l15 4 15 6 12 9 3 1 2 4 7 7 9 13 8 14 1-2-8-16-7-11-8-10-12-13-13-10-15-7-10-3zm123 15m1 1 1 31v39l-2 25-1 8v29l9-3 9-6h6l6 3 3 3 1 7-4 17-6 15-8 17-13 21-9 11-9 10-10 12-10 14-13 17-9 10-7 7-15 10-14 5-7 1h-22l-20-2v9l6 41 3 15 3 6 5 6 14 10 16 12 10 8 10 9 7 7 9 11 10 13 13 20 8 16 7 16 7 20 2 11-1 7-11 21-9 24-7 25-5 24-2 19-2 4-3 1h-24l-26 3-20 4-15 5-19 9-19 12-13 10-13 12-12 12-9 11-8 11-14 23-10 19-9 19-9 23-4 18-2 20v17l4 24 4 13 7 14 1-3-3-12-1-7v-29l3-16 4-11 7-11 18-21 16-12 15-9 20-8 13-4 6-1h12l7 3 7 8 6 14 4 20 1 12v12l-4 32-5 29 12-2 76-16 10-3 1-3-3-20-1-12v-38l5-14 6-8 9-3 2 7 4 2-1-8-2-10v-15l2-10 5-12 1-1 7 1 6 9 8 17 8 25 5 26 1 7 5-4 7-11 10-18 1-3v-8l-5-18-10-30-6-28-4-29-2-19-1-18v-37l3-40 4-33 6-34 7-28 12-36 8-21 12-25 13-25 10-15 11-15 11-13 10-10 2-3-1-11-8-28-14-39-12-32-14-35-19-46-13-28-12-26-13-28-9-19-11-27zm-132 14-10 3-9 6-10 10-8 13-2 4v13l13-1 11-3 18-2h25l21 4 15 5 5 2h6l-2-10-5-10-9-11-10-9-17-10-14-4zm-69 8v3zm-2 3 1 2zm-1 2m-1 1m-4 1 1 3zm24 4 1 2zm-24 1-2 16v16h1l2-24v-8zm23 1m147 22m-94 17-13 2-24 6-12 5-3 3 1 7 3 4 7-1 16-8 16-6 12-3h30l17 4 16 8 9 5 8 6 5 3-2-5-4-6-9-8-13-8-13-5-15-3zm7 24-17 5-15 8-11 9-9 8-6 1-6-3-4-7-5-15-1-2h-3l1 12 3 14 7 39 7 25 9 21 6 11 10 14 9 10 7 6 15 8 11 3h11l10-3 11-6 11-9 9-10 9-15 7-15 5-15 10-35 6-30v-9l-1-7-2-1-3 10-1 7-4 2-5 1-14-8-18-12-19-9-13-3zm81 11m1 1m584 9m-568 78-5 17 1 3 4-7 1-4v-9zm1155 2 1 3zm-1161 18 1 2zm1155 13-3 8-2 12h2l4-17zm-1304 5 1 2zm1 2 1 2zm1 2 1 2zm1 2 1 2zm1 2 1 5 9 15 9 10 14 7 16 5 14 2h10l10-1 11-6-3-1-7 1h-25l-17-3-15-6-8-6h-2l-2-4-8-8-6-10zm1344 125-7 3-11 40-14 62-10 44h28l2-2 5-21 8-35 9-38 7-36 2-7v-7l-5-2zm-432 2-3 5-6 12-10 16-11 23-11 32-3 15v17l5 16 5 8 6 3h12l1-2 2-37 4-39 6-32 7-27v-9zm272 7-6 4-5 17-16 72-7 30-4 13v3h25l2-3 10-44 13-57 4-21 1-8-3-3-11-3zm84 6-11 41-12 52-8 37 1 2 3-8 11-50 12-50 5-19v-5zm-805 6-15 5-21 11-14 11-10 9-8 8-10 14-6 10-9 17-9 24-10 34-5 21-4 28-2 23v28l2 24 5 22 6 17 7 16 3 6 3 3 6-2 10-15 9-21 8-21 12-39 10-37 13-54 16-74 7-29 8-35v-4zm644 11-2 7v5l2-4 2-8zm-68 6-1 1-4 20 1 4 4-14 2-10zm-66 5-4 11-7 39-2 12v20l5 20 4 9h2l-5-25v-24l6-44 2-18zm131 1 1 3zm-282 3 1 3zm-1 3 1 2zm-1 2 1 3zm-1 3 1 2zm-1 2 1 3zm-1 3 1 3zm-1 3 1 2zm217 0 1 3zm-218 2-14 44-6 24 1 4 3-6 8-30 9-32zm217 2 1 2zm62 20m-1 2 1 4zm-1 4 1 3zm-1333 136v7l3 8 7 12 9 10 7 8 23 23 11 9 15 12 5 3 2-1-12-12h-2l-2-4-12-11-7-8-19-19-7-8-4-5-5-5-4-6-6-13zm251 212-19 5-16 8-16 11-9 9-5 4-12 17-4 8 1 2 8-10 7-8 12-13 8-8 14-9 14-6 8-2h14l8 4 7 11 3 12 3 26h1v-15l-2-16-8-26-3-3-3-1zm-8 24-11 4-11 7-15 13-14 14-7 11-2 7-1 9v33l2 12 4 4 9-1 19-9 28-12 6-3 3-12 3-22 1-12v-29l-3-9-4-5z" fill="#0F0E0E"/>
<path transform="translate(1746,340)" d="m0 0h8l8 3 7 6 8 16 2 7 1 15-2 18-14 56v4l14 1 9 3 11 13h6l12-5 8 1 5 4 5 12 2 3 4-1 7-10 8-11 9-8 6-2 9 1 8 7 9 13 4 9 2 10v9l-7 34-15 63-24 96 3-8 24-97 10-42 11-44 9-22 4-6 8-7 10-4 9 1 8 7 5 6 5 9 5-12 4-8 12-12 4-2h11l8 4 7 8 6 12 3 14-1 20-5 29-10 45-15 65-9 41-6 24h34l13 2 6 3 5 6 6 17 1 5v23l-3 21-5 13-7 10-8 7-8 3-29 4-17 2-3 1-3 4-6 1-40 2h-28l-6-2-2-4-6-2-14-1h-12l-6 8-11 1-55-1-5-3-9-8-6-5-6-2h-2l-2 6-5 2-54 1-5 1-5 8h-78l-10-5-3-2-5-1-32-1h-24l-3 9-2 1h-33l-29-1-10-7h-9l-4-1h-16l-5 3-3 4-6 1h-45l-8-1-5-6-6-1-20-1h-41l-5 2-6 7-4 1h-82l-12-13-5-5-7-10-6-12-6-18-5-23-2-15-1-22 1-17 6-38 6-27 1-14-1-3-1-12v-11l7-15 1-4h-3l4-18 10-42 7-31 5-26 2-9 10-40 7-17 9-10 6-3h8l6 3 6 7 5 13 3 14 4 26 2 4 7 1 74 1 11 1 6 3 7 8 7 15v14l2 4 5-9 5-5 9-8 21-10 8-2h15l9 2 6 4v2l11-9 20-9 4-1h22l9 3 12 9 8 9 3 6 3 3 4-1 10-15 11-11 9-4 9 1 8 5 7 10 3 2 5-1 10-4h21l4-18 11-49 4-15 6-16 7-13 12-12 5-3 9-1 8 3 9 9 5 11 4 14v8l-1 10 3-11 3-15 7-17 7-11 8-8zm-38 69 1 3zm-6 31-3 8-2 12h2l4-17zm44 138-7 3-11 40-14 62-10 44h28l2-2 5-21 8-35 9-38 7-36 2-7v-7l-5-2zm-432 2-3 5-6 12-10 16-11 23-11 32-3 15v17l5 16 5 8 6 3h12l1-2 2-37 4-39 6-32 7-27v-9zm272 7-6 4-5 17-16 72-7 30-4 13v3h25l2-3 10-44 13-57 4-21 1-8-3-3-11-3zm84 6-11 41-12 52-8 37 1 2 3-8 11-50 12-50 5-19v-5zm-161 17-2 7v5l2-4 2-8zm-68 6-1 1-4 20 1 4 4-14 2-10zm-66 5-4 11-7 39-2 12v20l5 20 4 9h2l-5-25v-24l6-44 2-18zm131 1 1 3zm-282 3 1 3zm-1 3 1 2zm-1 2 1 3zm-1 3 1 2zm-1 2 1 3zm-1 3 1 3zm-1 3 1 2zm217 0 1 3zm-218 2-14 44-6 24 1 4 3-6 8-30 9-32zm217 2 1 2zm62 20m-1 2 1 4zm-1 4 1 3z" fill="#0F0E0E"/>
<path transform="translate(449)" d="m0 0h35l14 10 12 11 7 8 10 16 11 23 7 20 10 27 11 24 11 22 11 23 16 34 19 39 9 20 15 33 13 30 10 24 11 27 13 34 11 30 18 54v4l11-6 13-9 16-8 13-6 13-4 17-3h21l-5 6-11 7-10 7-12 9-16 15-12 13-7 9-8 11-11 17-12 21-14 31-10 25-9 27-8 31-5 25-6 47-3 44v24l2 34 4 29 6 33 9 29 8 20 11 22 7 11 10 13 9 10 8 7 20 11 13 3v1l-13 2-10 5-20 3-20 1-13-3-15-6-10-6-11-9-9-10-11-16-3-4-13 25-10 18-13 25-7 10-2 1-13 2-22 12-8 4-30 8-50 11-34 8-13 4-6-4-1-2-6 2-16 8-19 9-21 9-14 7-9-1-10-6-12-10-10-14-8-15-6-18-2-13-1-13v-18l2-20 4-19 7-20 9-20 15-29 13-20 6-8 8-11 12-14 12-12 11-9 12-9 16-10 15-8 21-7 30-7 14-2 24-1 2-3-1-7-4-3h-19l-18 2-15 4-23 11-8 5-7-1-14-11-10-9-2-1v-2l-4-2-7-7-8-7-15-15-7-8-53-53 2 4 7 11 7 7 7 8 11 11 8 7 10 9 12 11 3 6-3 17-6 24-10 23-8 11-9 11-9 8-12 6-11 2h-11l-16-4-16-6-2-1 9 10 5 8 3 9v13l-4 13-9 15-11 12-9 8-8 4-12 3-18 1-21-3-18-6-17-9-16-12-13-11-7-7-9-11-10-12-13-19-10-15-12-24-11-28-11-34-12-49-11-55-9-54-2-10v-105l7-19 8-16 8-11 7-6 10-5 8-2h9l22 4v-22l1-58 1-30 2-23 3-19 6-22 6-14 8-13 9-10 10-9 12-7 15-5 18-3h32l1-2 2-22 4-23 9-32 7-17 7-14 10-15 12-12 15-9 10-3h20l16 5 16 8 13 10 10 9 6 7 7 11 2 4 7-38 7-26 6-15 12-25 11-17 11-12 8-8 16-11zm13 17-11 4-9 6-12 12-7 10-12 21-9 21-6 18-7 37-3 25-1 14-1 36-3 11 4-4 11-14 10-11 11-9 11-7 8-4 17-5h22l15 4 16 9 14 11 15 15 10 14 5 10 2 5 1-3-4-18-5-46-5-35-5-29-6-22-9-24-8-16-7-11-9-10-9-8-12-6-4-1zm-175 99-11 2-9 5-9 8-9 14-10 21-10 30-5 24-7 43-3 4-12-1h-33l-16 3-11 4-10 7-7 6-9 13-8 20-6 24-3 23-3 63v66l1 14-11-2-13-6-15-4h-9l-9 3-5 4-8 13-5 14-4 24-2 22v40l4 34 15 90 11 52 11 38 11 30 13 28 7 8 4-1 12-15 14-16 3-2h9l5 5 6 10v7l-6 11-8 14-9 11-4 5 1 5 10 13 13 12 15 11 15 9 18 7 12 3h17l10-3 11-6 10-10 5-9 3-10v-12l-3-6-5-6-17-13-17-12-10-8-12-11-7-7-9-11-12-13-8-10-7-12-4-17-4-23-16-71-13-57-7-36-3-22v-15l2-5 6-2 7 2 5 6 6 14 7 23 10 41 9 40 9 38 10 36 3 12 2 4 5-2 15-15 4-5 10-7h7l11 6h14l9 3 6 10 1 5-3 9-6 11-16 24-8 9-2 4v7l4 6 14 13 18 13 16 9 12 5 4 1h10l9-3 11-8 7-8 11-20 7-23 3-11v-8l-7-8-13-11-13-12-7-8-11-13-11-15-8-16-5-13-6-27-12-64-13-56-12-46-14-51-9-43-9-51-2-15-1-21 2-16 4-6 5-1 6 3 7 16 8 24 7 27 12 54 11 52 11 53 5 26 7 33 9 43 5 21 3 4 4-1 7-8 6-7 7-5 3-1h21l7-4 6-6 6 1 6 4 5 6 1 3v12l-7 14-7 9-7 12-11 15-6 7-7 5h-4l-13-18-4-5-5-1 5 9 12 13 7 8 21 21 8 7 34 34 8 7 12 12 10 8 4 3 7-1 11-6 16-6 17-3 22-2 6-2 4-15 5-22 12-36 4-10-1-7-6-15-7-12-12-17-14-17-15-16-14-14-8-7-13-11-13-13-6-10-6-15-7-24-5-25-5-43-4-11-11-20-10-23-7-20-6-20-5-27-3-27-3-34v-54l5-62 1-19-3-9-7-10-4-5h-2v-2h-2l-1-3-11-9-14-9-13-6zm170 78-12 3-14 7-11 8-10 9-9 13-4 7 1 2 12-16 11-8 8-5 10-4 14-2h17l15 4 15 6 12 9 3 1 2 4 7 7 9 13 8 14 1-2-8-16-7-11-8-10-12-13-13-10-15-7-10-3zm123 15m1 1 1 31v39l-2 25-1 8v29l9-3 9-6h6l6 3 3 3 1 7-4 17-6 15-8 17-13 21-9 11-9 10-10 12-10 14-13 17-9 10-7 7-15 10-14 5-7 1h-22l-20-2v9l6 41 3 15 3 6 5 6 14 10 16 12 10 8 10 9 7 7 9 11 10 13 13 20 8 16 7 16 7 20 2 11-1 7-11 21-9 24-7 25-5 24-2 19-2 4-3 1h-24l-26 3-20 4-15 5-19 9-19 12-13 10-13 12-12 12-9 11-8 11-14 23-10 19-9 19-9 23-4 18-2 20v17l4 24 4 13 7 14 1-3-3-12-1-7v-29l3-16 4-11 7-11 18-21 16-12 15-9 20-8 13-4 6-1h12l7 3 7 8 6 14 4 20 1 12v12l-4 32-5 29 12-2 76-16 10-3 1-3-3-20-1-12v-38l5-14 6-8 9-3 2 7 4 2-1-8-2-10v-15l2-10 5-12 1-1 7 1 6 9 8 17 8 25 5 26 1 7 5-4 7-11 10-18 1-3v-8l-5-18-10-30-6-28-4-29-2-19-1-18v-37l3-40 4-33 6-34 7-28 12-36 8-21 12-25 13-25 10-15 11-15 11-13 10-10 2-3-1-11-8-28-14-39-12-32-14-35-19-46-13-28-12-26-13-28-9-19-11-27zm-132 14-10 3-9 6-10 10-8 13-2 4v13l13-1 11-3 18-2h25l21 4 15 5 5 2h6l-2-10-5-10-9-11-10-9-17-10-14-4zm-69 8v3zm-2 3 1 2zm-1 2m-1 1m-4 1 1 3zm24 4 1 2zm-24 1-2 16v16h1l2-24v-8zm23 1m147 22m-94 17-13 2-24 6-12 5-3 3 1 7 3 4 7-1 16-8 16-6 12-3h30l17 4 16 8 9 5 8 6 5 3-2-5-4-6-9-8-13-8-13-5-15-3zm7 24-17 5-15 8-11 9-9 8-6 1-6-3-4-7-5-15-1-2h-3l1 12 3 14 7 39 7 25 9 21 6 11 10 14 9 10 7 6 15 8 11 3h11l10-3 11-6 11-9 9-10 9-15 7-15 5-15 10-35 6-30v-9l-1-7-2-1-3 10-1 7-4 2-5 1-14-8-18-12-19-9-13-3zm81 11m1 1m16 87-5 17 1 3 4-7 1-4v-9zm-6 20 1 2zm-149 18 1 2zm1 2 1 2zm1 2 1 2zm1 2 1 2zm1 2 1 5 9 15 9 10 14 7 16 5 14 2h10l10-1 11-6-3-1-7 1h-25l-17-3-15-6-8-6h-2l-2-4-8-8-6-10zm-241 354v7l3 8 7 12 9 10 7 8 23 23 11 9 15 12 5 3 2-1-12-12h-2l-2-4-12-11-7-8-19-19-7-8-4-5-5-5-4-6-6-13zm251 212-19 5-16 8-16 11-9 9-5 4-12 17-4 8 1 2 8-10 7-8 12-13 8-8 14-9 14-6 8-2h14l8 4 7 11 3 12 3 26h1v-15l-2-16-8-26-3-3-3-1zm-8 24-11 4-11 7-15 13-14 14-7 11-2 7-1 9v33l2 12 4 4 9-1 19-9 28-12 6-3 3-12 3-22 1-12v-29l-3-9-4-5z" fill="#E2B05C"/>
<path transform="translate(1746,340)" d="m0 0h8l8 3 7 6 8 16 2 7 1 15-2 18-14 56v4l14 1 9 3 11 13h6l12-5 8 1 5 4 5 12 2 3 4-1 7-10 8-11 9-8 6-2 9 1 8 7 9 13 4 9 2 10v9l-7 34-15 63-24 96 3-8 24-97 10-42 11-44 9-22 4-6 8-7 10-4 9 1 8 7 5 6 5 9 5-12 4-8 12-12 4-2h11l8 4 7 8 6 12 3 14-1 20-5 29-10 45-15 65-9 41-6 24h34l13 2 6 3 5 6 6 17 1 5v23l-3 21-5 13-7 10-8 7-8 3-29 4-17 2-3 1-3 4-6 1-40 2h-28l-6-2-2-4-6-2-14-1h-12l-6 8-11 1-55-1-5-3-9-8-6-5-6-2h-2l-2 6-5 2-54 1-6 2-6-1-10-4-11-9-12-12-5-12-2-18v-19l3-23 4-19 3-6 12-54 12-50 5-19v-2l-2 2 1-7 1-10-13-3-9-6-5-8-3-12v-32l2-15 5-15 6-10 7-7 5-4 15-4 13-2 4-5v2h2l2-12 3-19 9-34 3-15 7-17 7-11 8-8zm0 238-7 3-11 40-14 62-10 44h28l2-2 5-21 8-35 9-38 7-36 2-7v-7l-5-2z" fill="#0F0E0E"/>
<path transform="translate(1212,397)" d="m0 0h8l6 3 6 7 5 13 3 14 4 26 2 4 7 1 74 1 11 1 6 3 7 8 7 15v14l2 4 5-9 5-5 9-8 21-10 8-2h15l9 2 6 4-1 4-22 33-13 24-11 25-6 17-7 24-1 10-4 8-4 19-6 36v20l4 18v9l4 24 5 19 7 25 7 14 8 10 11 10 9 6v4l-7 3-4 5-6 1h-45l-8-1-5-6-6-1-20-1h-41l-5 2-6 7-4 1h-82l-12-13-5-5-7-10-6-12-6-18-5-23-2-15-1-22 1-17 6-38 6-27 1-14-1-3-1-12v-11l7-15 1-4h-3l4-18 10-42 7-31 5-26 2-9 10-40 7-17 9-10zm102 183-3 5-6 12-10 16-11 23-11 32-3 15v17l5 16 5 8 6 3h12l1-2 2-37 4-39 6-32 7-27v-9zm-90 45 1 3zm-1 3 1 2zm-1 2 1 3zm-1 3 1 2zm-1 2 1 3zm-1 3 1 3zm-1 3 1 2zm-1 2-14 44-6 24 1 4 3-6 8-30 9-32z" fill="#0F0E0E"/>
<path transform="translate(1746,340)" d="m0 0h8l8 3 7 6 8 16 2 7 1 15-2 18-14 56v4l14 1 9 3 13 15 2 6 1 6v29l-4 23-5 12-9 12-9 6-5 2h-11l-14-1-6 2-11 40-14 62-10 43 27 1 15 2 10 7 6 9 4 12 1 9v27l-4 18-7 13-6 9h-7l-2 6-5 2-54 1-6 2-6-1-10-4-11-9-12-12-5-12-2-18v-19l3-23 4-19 3-6 12-54 12-50 5-19v-2l-2 2 1-7 1-10-13-3-9-6-5-8-3-12v-32l2-15 5-15 6-10 7-7 5-4 15-4 13-2 4-5v2h2l2-12 3-19 9-34 3-15 7-17 7-11 8-8z" fill="#0F0E0E"/>
<path transform="translate(942,192)" d="m0 0h9l-4 6-6 15-4 17-1 7v28l3 12 5 8 8 7 5 2 6 1 36 1 1 3-4 17-7 34-8 37-7 29-8 36-11 50-7 30-10 50-9 38-12 56-8 36-7 30-3 15-5 19-7 28-11 38-10 30-11 25-10 17-9 12-7 7-11 7-13 4h-15l-8-3-7-6-3-7 4-4 8-13 11-27 7-20 10-32 10-37 13-54 16-74 7-29 9-39 12-2 15-5 12-5 11-8 7-11 3-8 3-13 1-9v-15l-2-13-7-18-6-10-9-9-8-6-3-2 2-5 4-22 6-27 10-46 8-35 4-20v-3h-31l-12-2-7-4-8-10-5-13-2-11v-13l3-19 6-17 6-9 4-5 14-9 8-2z" fill="#E1AF5B"/>
<path transform="translate(1680,351)" d="m0 0 9 1 6 4 7 7 5 11 4 14v8l-3 21-5 23-3 8-2 10h-2l-2 5-5 2-13 2-11 3-11 10-6 10-5 15-2 15v32l3 12 5 8 8 5 13 3 1 1-1 10-2 13-10 39-10 43-8 37-2 9-4 19-2 18v19l2 18 5 12 14 14 10 7 14 5-3 6-1 1h-78l-10-5-3-2-5-1 5-4 8-8 8-7 6-9 5-15 2-12v-24l-5-16-6-12-7-6-9-2h-24l-2-2 15-1 4-16 20-87 4-21 1-8-5-3-11-3v-17l3-19 5-24 1-16-1-28 8-4 4-1h21l4-18 11-49 4-15 6-16 7-13 12-12 5-3z" fill="#E1AF5C"/>
<path transform="translate(927,575)" d="m0 0 3 2-2 18-4 16-4 17-2 14-6 25-4 21-3 13-5 18-3 14-3 17-6 19-2 11-4 18h-2l-1 7-2 5-2 9-2 11-3 9-6 15-5 15-5 8-5 15-4 7h-2l-3 9-7 12-5 6-1 3h-2l-1 3-9 4-5 4-3 1h-17l-8-3-4-3-4-8 10-16 11-27 7-20 10-32 10-37 13-54 16-74 7-29 9-39 6 1v2l24-9 10-3 11-7h3l2-4z" fill="#E2B05C"/>
<path transform="translate(1408,477)" d="m0 0h15l9 2 6 4-1 4-22 33-13 24-11 25-6 17-7 24-1 10-4 8-4 19-6 36v20l4 18v9l4 24 5 19 7 25 7 14 8 10 11 10 9 6v4l-7 3-4 5-6 1h-45l-8-1-5-6-6-1-20-1v-1l14-1 9-8 8-7 6-8 8-24 1-5v-16l-2-13-6-16-5-8-5-4-8-2-48-1v-1h9l1-26 3-34 3-24 5-26 7-27 8-8 10-7 8-6 6-8 5-10 4-18 3-24 5-8 5-5 8-7 21-10z" fill="#E1AF5B"/>
<path transform="translate(1816,477)" d="m0 0 8 1 5 4 5 12 2 3 5-1-1 8-10 40-7 33-9 39-7 30-9 40-4 17-3 16-1 10v41l3 19 5 15 7 13 11 12 10 8 7 4 9 3-2 5-2 2-11 1-55-1-5-3-9-8-6-5-2-2 7-11 6-11 4-18v-27l-2-13-5-12-5-6-8-5-15-2 4-17 4-15 11-49 7-30 5-25 2-11-2-1 11-2 10-6 9-12 5-12 4-23v-29l-2-11-1-2 9-3z" fill="#E1AF5B"/>
<path transform="translate(1226,580)" d="m0 0h12l5 3-2 6-5 10-7 17-3 10-3 4-10 28-10 33-5 20v3l4-13 3-11 1 4-1 10v37l4 25 6 25 7 17 7 11 11 12 10 8 14 5 4 2-2 4-5 2h-82l-12-13-5-5-7-10-6-12-6-18-5-23-2-15-1-22 1-17 6-38 6-27 1-9 2 1 3 12 7 9 6 3 10 2 7-1 6-5 7-11 8-25 9-35 6-12z" fill="#E1B05C"/>
<path transform="translate(1935,477)" d="m0 0 9 1 8 7 5 6 5 10h-2l-1 9-9 36-8 36-14 64-8 34-7 20-6 11-6 7-10 7-7 2h-14l-7-3-3-4-1-3 1-13 12-52 1-9 13-54 17-70 10-25 4-6 8-7z" fill="#E1AF5B"/>
<path transform="translate(1171,428)" d="m0 0h1v19l1 21-1 4 7-2-1 12-6 29-10 43-9 37v3l-3 3-6 14-9 36-8 22-6 8-4 3-3 1h-13l-5-3-6-7-6-12-3-12v-20l6-37 16-72 4-12 7-4 14-11 10-9 9-11 10-16 9-16z" fill="#E1AF5B"/>
<path transform="translate(1480,557)" d="m0 0h12l10 6 5 6 3 5 1 4v19l-3 13v7l-2 12-7 28-2 10h-2l-1 9-7 26-7 14-9 10-7 2h-13l-9-3-6-8-5-14v-33l1-15 1-8h2l-1-4 2-2 4-14 3-13 6-16 8-16 8-12 8-9z" fill="#E1AF5B"/>
<path transform="translate(998,299)" d="m0 0 1 4-3 13-7 34-8 37-7 29-8 36-11 50-7 30-10 50-9 38-12 56-8 36-7 30-3 15-5 19-7 28-11 38-10 30-11 25-10 17-9 12-7 7-11 7-13 4h-15l-8-3-7-6-3-7 4 1 2 3v3l4 2 8 3h17l5-3 12-6 1-2h2l1-4 9-13 6-13h2l2-5 5-14 8-16 5-16 4-9 3-11 4-15 1-7 3-8h2l1-9 3-15 6-21 3-12 3-17 5-21 3-10 4-23 5-19 3-14 3-19 4-17 3-12 1-12h-3l-5 6-11 6-6 3-21 7-10 3v-2l-3-1 19-5 17-7 11-8 7-11 3-8 3-13 1-9v-15l-2-13-7-18-6-10-14-14 5 2 10 9v2h2l10 18 6 11 5-1 5-5h2l2-4 3-17 2-16 3-11 2-5 5-18 2-14 5-17 2-5 4-25 5-17 5-23 4-20 4-5z" fill="#AA8749"/>
<path transform="translate(1839,500)" d="m0 0 1 4-10 40-7 33-9 39-7 30-9 40-4 17-3 16-1 10v41l3 19 5 15 7 13 11 12 10 8 7 4 9 3-2 5-2 2-11 1-55-1-5-3-9-8-6-5-2-2 7-11 6-11 4-18v-27l-2-13-5-12-5-6-6-4 2-1 8 6 5 7 6 18 1 7 4-1 4 1 1-3h3l1-6v-28l1-15 3-14 2-2 3-13 3-24 3-12h2l1-7 4-19 3-16 2-10 4-9 3-18 3-13 1-9h2v-5l3-6 4-16 2-2 4-16z" fill="#E1AF5C"/>
<path transform="translate(1082,296)" d="m0 0 14 1 12 4 4 5 3 11v30l-2 15-6 16-5 9-8 7-17 3h-24l-1-1 1-10 12-50 7-32 3-6z" fill="#E1AF5B"/>
<path transform="translate(453,109)" d="m0 0h26l13 4 8 6 7 8 5 12v20l-5 8-7-2-6-1-8-3-15-2h-17l-14 2-11 4-9 1-4-9v-17l6-12 7-8 9-6 10-4zm4 16-12 3-6 5-2 8 2 1 21-2h15l7 2h7l1-1-1-7-7-6-10-3z" fill="#E2B05C"/>
<path transform="translate(825,477)" d="m0 0 2 1-9 8-15 9-7 6-8 6-15 14-12 13-7 9-8 11-11 17-12 21-14 31-10 25-9 27-8 31-5 25-6 47-3 44v24l2 34 4 29 6 33 9 29 8 20 11 22 7 11 10 13 9 10 8 7 3 3-5-2-8-6-11-9-9-10-7-9-5-7-2-1-2-8-3-4v-5h-2l-3-10-6-14-3-9-5-18-5-24-3-27-1-6-1-19-1-11-1-16v-35l3-28 3-23 2-24 5-23 3-12 2-16 3-9 5-12 6-19 10-27 14-31 9-15 10-15 10-14 8-8 1-2h2l2-4 7-6 4-5 9-6 4-4 11-8 13-10 14-7z" fill="#AA8749"/>
<path transform="translate(1725,921)" d="m0 0h8l5 2 1 6-1 14-10 9-13 9 4 4 25 2 3 5v11l-4 10-5 5-4 1h-25l-8-3-6-8-6-16-8-6h-16l-7-3-6-13-1-3v-8l5-6 3-3 3-6 2-1 13-1 7 2 4 4 2 3v3l-26 1-4 1 2 4 6 3h7l8-3 3-4 5 2 3 2-1 9-6 16v2l5 1 8-3 3 1 2-7-3-6-1-6v-9l5-9 2-6zm-9 9-6 3-1 6 3 3 5 1h14l-1-9-3-3-3-1zm-10 45-1 1v10l3 2 21 2 5 1 2-7-1-4-2-2z" fill="#12100F"/>
<path transform="translate(1176,864)" d="m0 0h63l1 1-1 7-1 1h-26l-7 1h-17l1 22 2 1 9 1 26 1 9 2-1 7-6 1h-39l1 19 1 61 10 1h48l4-1 3-11 3 1v16l-2 2-8 1h-70v-34l1-10v-23l-4-55z" fill="#181511"/>
<path transform="translate(1614,789)" d="m0 0h5v2h7l3 3 5 17 3 6 8 7 8 8 10 7 14 5-3 6-1 1h-78l-10-5-3-2-5-1 5-4 8-8 8-7 6-9 3-8h2l4-17z" fill="#E0AE5B"/>
<path transform="translate(1368,768)" d="m0 0h2l6 14 2 9 8 20 8 11 13 11 6 5 2 5-5 3-3 4-6 1h-45l-8-1-5-6-6-1-20-1v-1l14-1 9-8 8-5 8-10 6-15 3-7 2-18v-8z" fill="#E1AF5B"/>
<path transform="translate(1543,864)" d="m0 0h57l6 2-1 7-2 1h-49l1 19 1 4 33 2 11 2v7l-6 1h-37v47l1 34 33 1h10l14-1 5-2 4-9h1v13l-1 5-4 1-59 1-14-1-1-1v-77l-3-45z" fill="#1B1712"/>
<path transform="translate(1839,500)" d="m0 0 1 4-10 40-7 33-9 39-7 30-9 40-4 17-3 16-1 10v41l3 19 5 15 7 13 11 12 1 2-4-2-11-10-5-8-6-16-1-5-7 1-1 1h-10l-2 5-5 15-2 1 4-20v-27l-2-13-5-12-5-6-6-4 2-1 8 6 5 7 6 18 1 7 4-1 4 1 1-3h3l1-6v-28l1-15 3-14 2-2 3-13 3-24 3-12h2l1-7 4-19 3-16 2-10 4-9 3-18 3-13 1-9h2v-5l3-6 4-16 2-2 4-16z" fill="#AB8849"/>
<path transform="translate(1226,580)" d="m0 0h12l5 3-2 6-5 10-7 17-3 10-3 4-10 28-7 22h-3l-3-15-14 7-3 1h-8l-11-3-7-5-3-5 1-2 6 7 6 3 10 2 7-1 6-5 7-11 8-25 9-35 6-12z" fill="#AB8849"/>
<path transform="translate(1640,861)" d="m0 0h6v95l4 5 4 3-16 2h-9v-34l2-55 1-15h7zm-1 11 1 2z" fill="#A98648"/>
<path transform="translate(1480,557)" d="m0 0h12l10 6 5 6 3 5 1 4v19l-3 13v7l-2 12-7 28-2 10h-2l-1 9-7 26-7 14-9 10-7 2h-13l-9-3-6-8-5-14v-33l1-15 1-8 3-1-1 14-2 27 2 17 3 8 5 7 2 4 7 1 2 1h12l6-3 5-7v-7l4-8 5-7 1-12 1-5 1-17h2l1-8h2l1-6 3-14 1-12v-6l1-5v-11l1-5-1-2 2-9-1-9-3-5-2-1v-2l-4-2-7-3-6 2-6 5-7 8-7 10-3 5-4 11-3 8-5 13-2 2v-7l10-25 8-14 7-9 6-7z" fill="#AA8749"/>
<path transform="translate(1669,587)" d="m0 0 1 4-2 13-10 39-10 43-8 37-2 9-4 19-2 18v19l2 18 4 10-1 2-3-4-4-13-3-8-8-2v-2l-5 1-4 15-2 2 1-7 2-12v-24l-5-16-5-10 1-2 3 3 7 16 2 2 1 7 1-2h2l2-10 5-5 6-1 2-10 2-12 1-15 4-13 4-9 2-13 4-18 2-5 2-7 3-15 3-18 3-9z" fill="#AB8849"/>
<path transform="translate(1500,810)" d="m0 0 3 3 6 11 6 8 4 4 2 6-3 9-2 1h-33l-29-1-10-7h-9l-11-2v-1h13l10 1 2 1h9l8-2 11-6 10-8 7-9 4-6z" fill="#DFAF5C"/>
<path transform="translate(1315,901)" d="m0 0h7l4 2-4 7h-2l-2 6-2 3 12 1 10 3 16-1 2 4v39l-1 1-10-1-4-9-3-6 4-4 1-3v-10l-2-6-7 1-11 6-3 7-3 11 8 1 11-3v3l-6 11-5 2h-8l-4-4-1-4-1-25-1-1v-14l1-4v-7l3-5z" fill="#13110F"/>
<path transform="translate(1916,812)" d="m0 0 4 2 6 15 10 8 25 7-3 5-6 1-40 2h-28l-6-2-2-4-6-2 4-1 6-1 8-2 9-5 10-8 6-9 2-5z" fill="#DEAD5B"/>
<path transform="translate(1401,921)" d="m0 0h9l8 2 6 7 2 8v9l-3 9-4 6-4 2-14 2h-11l-6-3-6-9-3-7v-7l6-7 5-4 4-5 5-2zm1 9-9 3-5 5v11l4 6 8 2 12-2 3-4 1-10-2-7-4-3z" fill="#14110F"/>
<path transform="translate(1924,921)" d="m0 0h17l5 3 3 6 1 4 1 15v11l-4 4-21 2h-11l-4-2-1-2v-7l3-5h6l6-4 12-3 3-2v-8l-18-1-5-3-1-4 4-3z" fill="#14120F"/>
<path transform="translate(1762,922)" d="m0 0h18l4 2 2 13 1 6v21l-2 1-12 1h-17l-5-2-2-5 4-9 3-5h10l7-3 3-3-1-5-3-2-17-2-1-6z" fill="#13110F"/>
<path transform="translate(1507,924)" d="m0 0 4 1 2 3v8l-7 14-7 11-9 7-10 4h-12l-8-4-4-4-1-3v-11l4-19 1-2h3l5 12 2 18 2 5h6l8-5 4-5 5-11 3-3 3-9z" fill="#12110F"/>
<path transform="translate(1814,921)" d="m0 0h11l7 2 3 3 1 9v11l1 17-4 4-6-1-1-1v-28l-1-4-5-2-9 1-3 4v10l1 18-2 2h-9l-2-2v-24l4-16 3-2z" fill="#161310"/>
<path transform="translate(1281,922)" d="m0 0h12l3 4v9l-4 4-13 2-2 2-4 7-1 4 15-2 7-8 5 1 4 3-3 7-3 8-3 2-6 1h-13l-5-3-4-4-1-3v-12l1-9 6-8 6-4z" fill="#12100F"/>
<path transform="translate(1361,863)" d="m0 0h8l2 1 1 6v53l-1 35-2 8-1 2h-5l-1-2v-35l-1-34-1-10v-23z" fill="#251F16"/>
<path transform="translate(1362,707)" d="m0 0 2 1 3 13v9l4 24 5 19 7 25 7 14 8 10 11 10 9 6v4l-5-1-3-5-13-11-6-5-7-11-7-18-3-11-4-10v-2l-2 1v12l-2 14-4 10-5 12-8 10-3 3-2-1 8-9 4-8 6-19 1-5v-16l-2-13-6-16-5-8-5-4-8-2-48-1v-1l10-1h27l14 1 6 2 6 4 8 8 2 3h2l-1-7z" fill="#AC8849"/>
<path transform="translate(928,570)" d="m0 0h4l1 4-2 18-3 14v2h-2l-1 9-2 4-5 29-5 21-6 28-6 24-5 26-4 15-5 19-4 18-8 27-3 12-6 16-6 17-7 14-5 12h-2l-1 5-8 16-9 11-6 4-10 3 3-3 9-4 1-2h2l1-4 9-13 6-13h2l2-5 5-14 8-16 5-16 4-9 3-11 4-15 1-7 3-8h2l1-9 3-15 6-21 3-12 3-17 5-21 3-10 4-23 5-19 3-14 3-19 4-17 3-12 1-12h-3v-3z" fill="#BB9650"/>
<path transform="translate(700,625)" d="m0 0 1 4-9 25-8 26-3 13-6 31-2 8-5 44-3 38v32l3 41 4 33 2 5 2 15 6 21 10 28 14 29 3 4-1 2-7-8-3-3-2-8-3-4v-5h-2l-3-10-6-14-3-9-5-18-5-24-3-27-1-6-1-19-1-11-1-16v-35l3-28 3-23 2-24 5-23 3-12 2-16 3-9 5-12 6-19z" fill="#BB9650"/>
<path transform="translate(1644,865)" d="m0 0h2v91l4 5 4 3-16 2h-9v-34l1-32h2v9l2 1-1 2 2 1 1 12-1 23-2 14 1 1 3-3 1-4 2-33 1-29 1-15 1-2v-11z" fill="#1B1712"/>
<path transform="translate(1960,499)" d="m0 0 2 2h-2l-1 9-9 36-8 36-14 64-8 34-7 20-6 11-6 7-2-1 8-10 2-6 1-8 2-2 1-7 5-12 2-13 2-14h2l1-6 1-2 2-12 3-13 3-17 2-11 2-3 2-8 2-10 3-17 4-8 5-21 5-17z" fill="#B5914D"/>
<path transform="translate(1862,921)" d="m0 0h13l5 3v4l-5 2-20 2-1 7 2 9 4 5 4 2h9l8-3-1 10-4 3h-20l-4-2-7-14-1-4v-9l4-4 5-1 2-6 4-3z" fill="#141210"/>
<path transform="translate(1480,897)" d="m0 0h7l4 4-2 3-15 6-3 2-4 9-1 2 8-4 5 2 11 9 5 6v5l-3 3-10-1-5-3-10-11-6-7-1-8 8-8 4-6z" fill="#12100F"/>
<path transform="translate(1749,730)" d="m0 0 5 2 7 6 5 10 5 18v2l4-1 4 1 1-3h3l2-4 2 15 4 13-1 3v-2l-7 1-1 1h-10l-2 5-5 15-2 1 4-20v-27l-2-13-5-12-5-6-6-4z" fill="#BB9650"/>
<path transform="translate(1601,736)" d="m0 0 4 3 7 16 2 2 1 7 1-2h2l2-10 5-5 6-1-1 7-5 7-2 12 2 7 2 4 2 3 1 11-5-5-6-1v-2l-5 1-4 15-2 2 1-7 2-12v-24l-5-16-5-10z" fill="#BB9650"/>
<path transform="translate(1168,457)" d="m0 0h4l1 4v7l-1 4 7-2-1 12-6 29-10 43-9 37v3l-3 1 2-13 3-13 5-27 1-3 1-11 2-2 5-20 1-27-1-5-2-1-2-8z" fill="#AA8749"/>
<path transform="translate(1226,580)" d="m0 0h12v1l-13 2-4 4-3 16-1 9-6 15-3 9-4 13-8 16-4 3h-2v2l-7 3h-8l-11-3-7-5-3-5 1-2 6 7 6 3 10 2 7-1 6-5 7-11 8-25 9-35 6-12z" fill="#AA8749"/>
<path transform="translate(1205,690)" d="m0 0 1 4-1 10v37l4 25 6 25 7 17 7 11 11 12 10 8 9 3-4 1-7-2-7-7-5-3-5-5-5-4v-2h-2l-3-3-9-18-3-9-5-21-2-20v-48z" fill="#AA8749"/>
<path transform="translate(1228,581)" d="m0 0h10l3 2v2l-6 1-2 4-2 5-2 2-4 6h-2l-1 6 1 5-3 1-2 10h-2l1 5-2 4-2 1-1 5h-2v5l-3 2-1-1 1-10 3-9 6-15 1-9 3-16 5-5z" fill="#E2B05C"/>
<path transform="translate(973,397)" d="m0 0h1l-1 9-4 13-5 27-7 24-4 24-3 10-4 9-3 5-2 9-1 5 1 5-3 13h-3v-10l2-13-1-5-1-9v-3l5-1 5-5h2l2-4 3-17 2-16 3-11 2-5 5-18 2-14 5-17z" fill="#BB9650"/>
<path transform="translate(1895,922)" d="m0 0h5l2 3 2 11v11l-3 2-4-4-1-2 3 16v5l-1 1h-10l-1-1v-9l1-6-4-1v-2l8 1 1-3-2-12v-7z" fill="#171411"/>
<path transform="translate(1669,587)" d="m0 0 1 4-2 13-10 39-10 43-3 15-2-2-4 13-2 10h-1v-13l4-13 4-9 2-13 4-18 2-5 2-7 3-15 3-18 3-9z" fill="#BA944F"/>
<path transform="translate(1435,646)" d="m0 0h1l-1 14-2 27 2 17 3 8 5 7 2 4 7 1 2 1h12l6-3 5-7v-7l4-8 5-6h2l2-18 3-2 1 2-7 26-7 14-9 10-7 2h-13l-9-3-6-8-5-14v-33l1-15 1-8z" fill="#AA8749"/>
<path transform="translate(1830,528)" d="m0 0 1 3-6 27-4 15-1 3-2 16-4 17-3 3-2 9-1 14-4 16-2 7h-3l1 3-4 21h-1v-9l2-13 2-9h2l1-7 4-19 3-16 2-10 4-9 3-18 3-13 1-9h2v-5l3-6z" fill="#BB9650"/>
<path transform="translate(1435,482)" d="m0 0 3 1-1 4-22 33-13 24-11 25-6 17-7 24-1 10-5 9-1-3 4-15 1-8 2-2 2-8 9-27 8-18 2-7 7-11 2-1 1-4 8-13 10-15 3-5-2-1 4-6z" fill="#AE8A4A"/>
<path transform="translate(1839,500)" d="m0 0 1 4-10 40-7 33-9 39-7 30-3 9-1-4 2-6 2-13 2-17 2-5 2-1 5-21 1-12 3-10 6-26 3-17 2-2 4-16z" fill="#AA8749"/>
<path transform="translate(1168,457)" d="m0 0h4l1 4v7l-1 4h3l-1 21-2 7-4 21-2 7-3 14-2 6h-1l1-9 1-11 2-2 5-20 1-27-1-5-2-1-2-8z" fill="#BD9750"/>
<path transform="translate(1768,890)" d="m0 0 6 3 4 8v3l-15 3h-9l1-7 6-5z" fill="#11100F"/>
<path transform="translate(1960,499)" d="m0 0 2 2h-2l-1 9-9 36-8 36-13 60h-1v-7l3-14 3-17 4-15 8-37 2-8 3-16 7-24z" fill="#AA8749"/>
<path transform="translate(1594,484)" d="m0 0h2l2 20h2v9l-3 19-3 11-3 16-3 13-1 13h-1v-15l3-19 5-24 1-16z" fill="#AB8849"/>
<path transform="translate(1643,498)" d="m0 0 1 4-2 9-1 9v32l3 12 5 8 8 5 13 3 1 1v6h-1l-1-5-13-2-10-7-4-6-4-13-1-8v-30z" fill="#B08D4B"/>
<path transform="translate(1105,301)" d="m0 0 4 1 4 6 2 9v30l-2 15-6 16-5 9-8 7-17 3h-24v-1l30-2 12-3 7-8 6-14 3-9 1-25v-20l-3-10z" fill="#AB8849"/>
<path transform="translate(1074,299)" d="m0 0 1 3-2 11-6 31-4 16-3 15-4 12-3 4 1-9 11-46 7-32z" fill="#AA8749"/>
<path transform="translate(1499,623)" d="m0 0h1v10l-2 16-1 2-1 9-1 2h2v5h-2l-1 8-3 1-2 15-1 3-2-1 1-12 1-5 1-17h2l1-8h2l1-6 3-14z" fill="#BA954F"/>
<path transform="translate(1749,730)" d="m0 0 5 2 7 6 5 10 4 13 2 12 1 12-2 11-3 8-4 9-1-2 4-18v-27l-2-13-5-12-5-6-6-4z" fill="#AB8849"/>
<path transform="translate(1601,736)" d="m0 0 4 3 7 16 2 2 2 11 2 2v7 2 3l-3 2-4 18-2 5-1-4 2-7 1-8v-24l-5-16-5-10z" fill="#AA8749"/>
<path transform="translate(947,194)" d="m0 0 1 2-7 17-4 17-1 7v28l3 12 5 8 6 7-4-2-8-8-5-15-1-5v-22l4-18 4-12 6-15z" fill="#AE8B4A"/>
<path transform="translate(1894,941)" d="m0 0 2 2 3 16v5l-1 1h-10l-1-1v-9l1-6-4-1v-2l8 1z" fill="#151210"/>
<path transform="translate(1948,540)" d="m0 0 1 4-6 26-7 32-3 13-4 20-2 4-1-2 2-12 3-13 3-17 2-11 2-3 2-8 2-10 3-17z" fill="#BB9650"/>
<path transform="translate(1480,557)" d="m0 0h9v2h-6l-9 6-5 5-8 11-5 8-4 11-3 8-5 13-2 2v-7l10-25 8-14 7-9 6-7z" fill="#AF8B4B"/>
<path transform="translate(1708,400)" d="m0 0h1v13l-5 21-2 7-4 17h-2l-2 5-1-2 1-11 4-12 4-8 3-13 1-13z" fill="#B8934E"/>
<path transform="translate(1205,644)" d="m0 0 4 2-1 7-3 8 1 5v14h-3l-3-15-7 4-3-1 5-3 8-16z" fill="#BB9650"/>
<path transform="translate(1381,798)" d="m0 0h2l7 14 8 10 11 10 9 6v4l-5-1-3-5-13-11-6-5-7-11-3-7z" fill="#AA8749"/>
<path transform="translate(1669,587)" d="m0 0 1 4-2 13-6 23-3 3h-1v-7l2-12 3-9z" fill="#AF8B4A"/>
<path transform="translate(1874,640)" d="m0 0h1v9l-7 33-3 15-3 11v9l1 6-3-3-1-3 1-13 12-52 1-9z" fill="#B48F4D"/>
<path transform="translate(1502,572)" d="m0 0 2 2 2 6v16l-2 4-3 22-2-3v-6l1-5v-11l1-5-1-2 2-9-1-8z" fill="#BB9650"/>
<path transform="translate(1492,674)" d="m0 0 2 2-7 26-5 11-4 1-1-6 4-8 5-6h2l2-18z" fill="#B7924E"/>
<path transform="translate(1435,482)" d="m0 0 3 1-1 4-22 33-9 16-1-4 1-3h2l1-4 8-13 10-15 3-5-2-1 4-6z" fill="#AB8849"/>
<path transform="translate(993,310)" d="m0 0 1 2-6 27-4 21-4 13-5 24h-1l1-10 2-15 5-17 5-23 4-20z" fill="#BB9650"/>
<path transform="translate(1648,669)" d="m0 0h1l1 8-5 24-2-2-4 13-2 10h-1v-13l4-13 4-9 3-17z" fill="#BB9650"/>
<path transform="translate(1803,655)" d="m0 0 1 4-7 30-2 8-4 3 1-7 2-11h2l1-12 2-12h3z" fill="#AC8949"/>
<path transform="translate(1162,546)" d="m0 0 1 4-10 41v3l-3 1 2-13 3-13 4-20z" fill="#AD8A4A"/>
<path transform="translate(1205,690)" d="m0 0 1 4-1 10-1 37-1 8h-1v-48z" fill="#B18D4C"/>
<path transform="translate(1203,757)" d="m0 0h2l3 18 4 14 3 11 6 11 2 3v3h-2l-9-18-3-9-5-21z" fill="#BB9650"/>
<path transform="translate(1074,299)" d="m0 0 1 3-2 11-6 31-2 3-1-7 6-27 3-12z" fill="#AC8849"/>
<path transform="translate(1435,646)" d="m0 0h1l-3 42h-2v-18l1-15 1-8z" fill="#AC894A"/>
<path transform="translate(1349,887)" d="m0 0 6 1v9l-4 1-6-3 1-7z" fill="#1D1A15"/>
<path transform="translate(1885,595)" d="m0 0 1 4-9 42-2-2 1-8 8-34z" fill="#9F7E44"/>
<path transform="translate(1794,801)" d="m0 0 3 1 8 15 11 12 1 2-4-2-11-10-5-8-3-7z" fill="#AF8B4B"/>
<path transform="translate(1896,888)" d="m0 0h7l3 2v5l-1 1h-9l-2-2v-5z" fill="#181511"/>
<path transform="translate(1454,590)" d="m0 0 1 3-4 8-6 18-3 4v-7l9-23 3-1z" fill="#B4904D"/>
<path transform="translate(904,588)" d="m0 0m-3 1 6 1-4 2-20 7-10 3v-2l-3-1 19-5z" fill="#B08C4B"/>
<path transform="translate(1640,557)" d="m0 0h2l4 11 4 5 10 5 10 2 1 1v6h-1l-1-5-13-2-10-7-4-6-2-6z" fill="#AB8849"/>
<path transform="translate(1708,400)" d="m0 0h1v13l-6 25h-2l1-8 3-13 1-13z" fill="#AF8B4B"/>
<path transform="translate(1960,499)" d="m0 0 2 2h-2l-1 9-7 28-3 2 2-12 7-24z" fill="#AE8B4A"/>
<path transform="translate(1154,658)" d="m0 0 5 5 5 4 13 3h7l-1 3h-8l-11-3-7-5-3-5z" fill="#AE8B4B"/>
<path transform="translate(1169,508)" d="m0 0 1 2-5 25-4 13h-1l1-9 1-11 2-2 4-17z" fill="#BB9650"/>
<path transform="translate(1648,669)" d="m0 0h1l1 8-4 19-1-3h-2l2-9 2-14z" fill="#C09951"/>
<path transform="translate(1865,683)" d="m0 0h1l-1 9-2 14-1 2v9l1 6-3-3-1-3 1-13z" fill="#AA8749"/>
<path transform="translate(1364,504)" d="m0 0 1 3-2 7-3 22-3 12-1-4 3-17 2-18z" fill="#AD8A4A"/>
<path transform="translate(1913,691)" d="m0 0h1v7l-7 13-6 7-2-1 8-10 2-6 1-7z" fill="#B28E4C"/>
<path transform="translate(1368,639)" d="m0 0h1v8l-3 18-2 3v-16z" fill="#BD9650"/>
<path transform="translate(734,558)" d="m0 0 1 2-13 21-6 11-1-2 8-16 10-15z" fill="#BB9650"/>
<path transform="translate(1502,813)" d="m0 0 3 4 7 11 5 5 4 9h-2l-3-5v-2l-3-1-3-5v-2l-4-2-3-5z" fill="#AA8749"/>
<path transform="translate(1790,700)" d="m0 0h1v7l-2 5-3 17h-1v-13l3-14z" fill="#BB9650"/>
<path transform="translate(1597,502)" d="m0 0 1 2h2v9l-3 19-2 2z" fill="#BB9650"/>
<path transform="translate(1378,604)" d="m0 0 1 3-2 13-5 9-1-3 5-19z" fill="#92743F"/>
<path transform="translate(1435,482)" d="m0 0 3 1-1 4-5 7h-2v-2l-2-1 4-6z" fill="#AB8849"/>
<path transform="translate(1657,629)" d="m0 0h4l-4 18-1 2h-2v-7l2-6z" fill="#BA944F"/>
<path transform="translate(1205,690)" d="m0 0 1 4-2 22-2 1v-16z" fill="#B7914D"/>
<path transform="translate(756,529)" d="m0 0h2l-2 4-10 11-8 11-1-2 10-14 8-8z" fill="#BB9650"/>
<path transform="translate(1480,713)" d="m0 0v3l-9 10-7 2h-6l3-3 8-1 5-5 4-5z" fill="#AE8A4A"/>
<path transform="translate(1492,674)" d="m0 0 2 2-6 23h-1l1-8 2-15z" fill="#AA8749"/>
<path transform="translate(1466,571)" d="m0 0v3l-7 10-3 5-2 3-2-1 8-14 5-5z" fill="#B18D4C"/>
<path transform="translate(1591,549)" d="m0 0h1l-1 10-3 13-1 13h-1v-15l1-9 3-7z" fill="#B38E4C"/>
<path transform="translate(1593,537)" d="m0 0h1l-1 12h-2l-1 9-2 2 1-9 3-13z" fill="#AE8A4A"/>
<path transform="translate(1156,573)" d="m0 0 1 2-4 18-3 2 2-13 2-8z" fill="#B18D4C"/>
<path transform="translate(1874,640)" d="m0 0h1v9l-4 18h-1l1-11 2-13z" fill="#987A42"/>
<path transform="translate(1435,646)" d="m0 0h1l-1 14-2 1-1-10 1-4z" fill="#B38E4C"/>
<path transform="translate(1109,365)" d="m0 0h1l-1 9-7 13h-3l5-8z" fill="#B28E4C"/>
<path transform="translate(1479,943)" d="m0 0 1 3-5 9h-2l1-8z" fill="#1C1813"/>
<path transform="translate(1162,546)" d="m0 0 1 4-1 4-2 1-2 9h-1v-7l3-9z" fill="#B28E4C"/>
<path transform="translate(1404,534)" d="m0 0 1 4-3 6-3 3-2-1 5-10z" fill="#B5914D"/>
<path transform="translate(1640,861)" d="m0 0h6v3h-14v-2h7z" fill="#F2DEBC"/>
<path transform="translate(1823,836)" d="m0 0 5 2 5 3 9 3-2 1-11-3-6-5z" fill="#AA8749"/>
<path transform="translate(1708,400)" d="m0 0h1v13l-2 2-1-9z" fill="#C69D53"/>
<path transform="translate(1376,616)" d="m0 0 1 4-5 9-1-3 2-9 3 1z" fill="#B18D4B"/>
<path transform="translate(1364,504)" d="m0 0 1 3-2 7-1 10h-1v-15z" fill="#B7914E"/>
<path transform="translate(1380,593)" d="m0 0h2l-2 10-4 4 1-5z" fill="#B08D4B"/>
<path transform="translate(1640,557)" d="m0 0h2l4 11v2l-3-1-3-8z" fill="#B08D4B"/>
<path transform="translate(1435,482)" d="m0 0 2 1-5 8-2 2-2-2 4-6z" fill="#BB954F"/>
<path transform="translate(1066,336)" d="m0 0h2l-2 11-2-2 1-8z" fill="#AF8B4B"/>
<path transform="translate(1657,629)" d="m0 0h4l-2 10h-2z" fill="#B7914D"/>
<path transform="translate(1295,939)" d="m0 0h2v2h-2z" fill="#785F35"/>
<path transform="translate(1625,976)" d="m0 0" fill="#AA8749"/>
<path transform="translate(1626,970)" d="m0 0" fill="#AA8749"/>
<path transform="translate(1374,939)" d="m0 0" fill="#AA8749"/>
<path transform="translate(426,860)" d="m0 0" fill="#E2B05C"/>
</svg>
